<svg xmlns="http://www.w3.org/2000/svg" viewBox="0.1 -79.0 544.0 106.0" role="img" aria-label="open-public">
  <path d="M27.200000000000003 1.0Q20.3 1.0 15.100000000000001 -2.1500000000000004Q9.9 -5.300000000000001 7.0 -10.700000000000001Q4.1000000000000005 -16.1 4.1000000000000005 -22.700000000000003Q4.1000000000000005 -29.3 7.0 -34.65Q9.9 -40.0 15.100000000000001 -43.2Q20.3 -46.400000000000006 27.200000000000003 -46.400000000000006Q34.1 -46.400000000000006 39.3 -43.2Q44.5 -40.0 47.400000000000006 -34.65Q50.300000000000004 -29.3 50.300000000000004 -22.700000000000003Q50.300000000000004 -16.1 47.400000000000006 -10.700000000000001Q44.5 -5.300000000000001 39.3 -2.1500000000000004Q34.1 1.0 27.200000000000003 1.0ZM28.400000000000002 -3.7Q31.8 -3.7 33.95 -6.1Q36.1 -8.5 37.1 -12.4Q38.1 -16.3 38.1 -20.700000000000003Q38.1 -26.1 36.900000000000006 -30.900000000000002Q35.7 -35.7 33.050000000000004 -38.75Q30.400000000000002 -41.800000000000004 26.200000000000003 -41.800000000000004Q22.8 -41.800000000000004 20.6 -39.400000000000006Q18.400000000000002 -37.0 17.35 -33.1Q16.3 -29.200000000000003 16.3 -24.8Q16.3 -19.400000000000002 17.55 -14.55Q18.8 -9.700000000000001 21.5 -6.700000000000001Q24.200000000000003 -3.7 28.400000000000002 -3.7Z" fill="#171717"/>
  <path d="M58.2 23.0V21.400000000000002L64.7 18.2V-34.6L58.50000000000001 -39.5V-40.5L74.30000000000001 -46.400000000000006H75.30000000000001L76.10000000000001 -40.300000000000004H76.7Q80.5 -43.5 83.95 -44.95Q87.4 -46.400000000000006 91.4 -46.400000000000006Q96.10000000000001 -46.400000000000006 99.95000000000002 -43.75Q103.80000000000001 -41.1 106.10000000000001 -36.25Q108.4 -31.400000000000002 108.4 -24.700000000000003Q108.4 -16.6 105.25 -10.850000000000001Q102.10000000000001 -5.1000000000000005 96.9 -2.0500000000000003Q91.70000000000002 1.0 85.4 1.0Q80.2 1.0 76.30000000000001 0.0V18.2L83.80000000000001 21.400000000000002V23.0ZM84.30000000000001 -38.7Q80.30000000000001 -38.7 76.30000000000001 -36.300000000000004V-7.7Q80.2 -4.1000000000000005 86.30000000000001 -4.1000000000000005Q89.0 -4.1000000000000005 91.4 -5.700000000000001Q93.80000000000001 -7.300000000000001 95.35000000000001 -11.100000000000001Q96.9 -14.9 96.9 -21.6Q96.9 -30.400000000000002 93.10000000000001 -34.550000000000004Q89.30000000000001 -38.7 84.30000000000001 -38.7Z" fill="#171717"/>
  <path d="M138.4 1.0Q128.3 1.0 122.5 -4.9Q116.7 -10.8 116.7 -20.6Q116.7 -28.200000000000003 119.85 -34.0Q123.0 -39.800000000000004 128.3 -43.10000000000001Q133.60000000000002 -46.400000000000006 140.0 -46.400000000000006Q148.0 -46.400000000000006 152.5 -40.900000000000006Q157.0 -35.4 157.10000000000002 -25.400000000000002L156.70000000000002 -24.900000000000002H127.9Q127.9 -20.5 129.5 -16.75Q131.1 -13.0 134.65 -10.7Q138.20000000000002 -8.4 144.20000000000002 -8.4Q147.0 -8.4 150.2 -9.25Q153.4 -10.100000000000001 156.9 -11.9H157.20000000000002V-10.5Q154.8 -5.6000000000000005 149.9 -2.3000000000000003Q145.0 1.0 138.4 1.0ZM138.0 -41.900000000000006Q134.0 -41.900000000000006 131.45 -38.650000000000006Q128.9 -35.4 128.20000000000002 -29.400000000000002H147.4Q146.5 -36.300000000000004 144.15 -39.10000000000001Q141.8 -41.900000000000006 138.0 -41.900000000000006Z" fill="#171717"/>
  <path d="M165.3 0.0V-1.6L171.8 -4.800000000000001V-35.0L165.6 -39.5V-40.5L181.4 -46.400000000000006H182.4L183.3 -39.0H183.8Q187.5 -42.6 190.95 -44.5Q194.4 -46.400000000000006 198.8 -46.400000000000006Q204.8 -46.400000000000006 208.65 -43.35000000000001Q212.5 -40.300000000000004 212.5 -34.300000000000004V-4.800000000000001L219.0 -1.6V0.0H195.0V-1.6L200.9 -4.800000000000001V-30.0Q200.9 -33.800000000000004 198.55 -35.85Q196.2 -37.9 192.6 -37.9Q190.3 -37.9 187.7 -37.1Q185.1 -36.300000000000004 183.4 -34.9V-4.800000000000001L189.3 -1.6V0.0Z" fill="#171717"/>
  <path d="M226.60000000000002 -22.200000000000003V-29.200000000000003H254.10000000000002V-22.200000000000003Z" fill="#33527a"/>
  <path d="M262.70000000000005 23.0V21.400000000000002L269.20000000000005 18.2V-34.6L263.00000000000006 -39.5V-40.5L278.8 -46.400000000000006H279.8L280.6 -40.300000000000004H281.20000000000005Q285.00000000000006 -43.5 288.45000000000005 -44.95Q291.90000000000003 -46.400000000000006 295.90000000000003 -46.400000000000006Q300.6 -46.400000000000006 304.45000000000005 -43.75Q308.30000000000007 -41.1 310.6 -36.25Q312.90000000000003 -31.400000000000002 312.90000000000003 -24.700000000000003Q312.90000000000003 -16.6 309.75 -10.850000000000001Q306.6 -5.1000000000000005 301.40000000000003 -2.0500000000000003Q296.20000000000005 1.0 289.90000000000003 1.0Q284.70000000000005 1.0 280.8 0.0V18.2L288.3 21.400000000000002V23.0ZM288.8 -38.7Q284.8 -38.7 280.8 -36.300000000000004V-7.7Q284.70000000000005 -4.1000000000000005 290.8 -4.1000000000000005Q293.50000000000006 -4.1000000000000005 295.9000000000001 -5.700000000000001Q298.30000000000007 -7.300000000000001 299.85 -11.100000000000001Q301.40000000000003 -14.9 301.40000000000003 -21.6Q301.40000000000003 -30.400000000000002 297.6 -34.550000000000004Q293.8 -38.7 288.8 -38.7Z" fill="#171717"/>
  <path d="M339.00000000000006 1.0Q333.00000000000006 1.0 329.20000000000005 -2.0500000000000003Q325.40000000000003 -5.1000000000000005 325.40000000000003 -11.100000000000001V-40.6L318.90000000000003 -43.800000000000004V-45.400000000000006H337.00000000000006V-15.4Q337.00000000000006 -11.5 339.30000000000007 -9.5Q341.6 -7.5 345.3 -7.5Q347.50000000000006 -7.5 350.05000000000007 -8.25Q352.6 -9.0 354.3 -10.5V-40.6L347.8 -43.800000000000004V-45.400000000000006H365.90000000000003V-4.6000000000000005L372.50000000000006 -1.6V0.0H354.3V-6.300000000000001H353.90000000000003Q350.20000000000005 -2.7 346.80000000000007 -0.8500000000000001Q343.40000000000003 1.0 339.00000000000006 1.0Z" fill="#171717"/>
  <path d="M384.20000000000005 0.6000000000000001V-63.6L378.00000000000006 -68.5V-69.5L394.80000000000007 -75.0H395.80000000000007V-40.300000000000004H396.30000000000007Q403.40000000000003 -46.400000000000006 410.90000000000003 -46.400000000000006Q415.6 -46.400000000000006 419.45000000000005 -43.75Q423.30000000000007 -41.1 425.6 -36.25Q427.90000000000003 -31.400000000000002 427.90000000000003 -24.700000000000003Q427.90000000000003 -16.6 424.75 -10.850000000000001Q421.6 -5.1000000000000005 416.25 -2.0500000000000003Q410.90000000000003 1.0 404.50000000000006 1.0Q396.00000000000006 1.0 389.80000000000007 -2.4000000000000004L385.20000000000005 0.6000000000000001ZM403.80000000000007 -38.7Q399.80000000000007 -38.7 395.80000000000007 -36.300000000000004V-7.7Q399.6 -4.1000000000000005 405.1 -4.1000000000000005Q408.00000000000006 -4.1000000000000005 410.6 -5.75Q413.20000000000005 -7.4 414.80000000000007 -11.350000000000001Q416.40000000000003 -15.3 416.40000000000003 -22.3Q416.40000000000003 -30.700000000000003 412.6 -34.7Q408.80000000000007 -38.7 403.80000000000007 -38.7Z" fill="#171717"/>
  <path d="M435.50000000000006 0.0V-1.6L442.1000000000001 -4.800000000000001V-63.6L435.80000000000007 -68.5V-69.5L452.70000000000005 -75.0H453.6000000000001V-4.800000000000001L459.70000000000005 -1.6V0.0Z" fill="#171717"/>
  <path d="M479.50000000000006 -57.1Q476.6000000000001 -57.1 474.70000000000005 -59.05Q472.80000000000007 -61.0 472.80000000000007 -63.900000000000006Q472.80000000000007 -66.8 474.70000000000005 -68.7Q476.6000000000001 -70.60000000000001 479.50000000000006 -70.60000000000001Q482.4000000000001 -70.60000000000001 484.3500000000001 -68.7Q486.30000000000007 -66.8 486.30000000000007 -63.900000000000006Q486.30000000000007 -61.0 484.3500000000001 -59.05Q482.4000000000001 -57.1 479.50000000000006 -57.1ZM467.50000000000006 0.0V-1.6L474.00000000000006 -4.800000000000001V-35.0L467.80000000000007 -39.800000000000004V-40.900000000000006L484.6000000000001 -46.400000000000006H485.6000000000001V-4.800000000000001L491.70000000000005 -1.6V0.0Z" fill="#171717"/>
  <path d="M521.4000000000001 1.0Q515.0000000000001 1.0 510.2000000000001 -1.7000000000000002Q505.4000000000001 -4.4 502.7500000000001 -9.25Q500.1000000000001 -14.100000000000001 500.1000000000001 -20.6Q500.1000000000001 -28.200000000000003 503.45000000000005 -34.0Q506.80000000000007 -39.800000000000004 512.6000000000001 -43.10000000000001Q518.4000000000001 -46.400000000000006 525.6 -46.400000000000006Q530.4000000000001 -46.400000000000006 533.6000000000001 -44.900000000000006Q536.8000000000001 -43.400000000000006 538.45 -41.5Q540.1 -39.6 540.1 -38.2Q540.1 -36.6 538.2 -35.2L534.4000000000001 -32.1L525.9000000000001 -42.1Q525.2 -42.2 524.6 -42.2Q520.5000000000001 -42.2 517.45 -39.900000000000006Q514.4000000000001 -37.6 512.8000000000001 -33.8Q511.20000000000005 -30.0 511.20000000000005 -25.3Q511.20000000000005 -17.3 515.3500000000001 -12.850000000000001Q519.5000000000001 -8.4 527.0000000000001 -8.4Q529.9000000000001 -8.4 533.0500000000001 -9.25Q536.2 -10.100000000000001 539.8000000000001 -11.9H540.1V-10.5Q537.7 -5.7 532.8500000000001 -2.35Q528.0000000000001 1.0 521.4000000000001 1.0Z" fill="#171717"/>
</svg>
